<svg id="Layer_1" data-name="Layer 1" xmlns="http://www.w3.org/2000/svg" xmlns:xlink="http://www.w3.org/1999/xlink" viewBox="0 0 1247.24 907.09">
	<defs>
		<style>
			.cls-1{fill:#7f5c4d;}.cls-2{fill:#fff;}.cls-3{fill:#494e45;}.cls-4{fill:#231f20;}.cls-5{opacity:0.6;}.cls-6{fill:#f8cc28;}
		</style>
	</defs>
	<image id="Image" width="4017" height="4016" transform="translate(141.58 -18.18) scale(0.24)" xlink:href="siteplanimage.png" />
	<g id="compass">
		<path d="M985.13,834.8a27.13,27.13,0,1,1,27.12-27.13A27.15,27.15,0,0,1,985.13,834.8Zm0-53.58a26.46,26.46,0,1,0,26.46,26.45A26.49,26.49,0,0,0,985.13,781.22Z" />
		<rect x="984.38" y="780.89" width="1.5" height="28.47" />
		<path class="cls-4" d="M980.11,760.85h1.77l6.84,9.82h0v-9.82h1.4v11.82h-1.77l-6.84-9.81h0v9.81h-1.4Z" />
	</g>
	<g id="AMO_B21" class="cls-5">
		<polygon class="cls-6" points="474.72 571.69 426.94 584.92 434.29 614.57 444.58 611.88 447.52 623.64 462.47 619.97 461 617.76 471.78 615.06 472.76 617.51 487.96 613.59 486.98 610.9 490.41 609.92 491.39 613.59 496.04 612.12 496.04 614.57 501.13 614.08 502 618.99 487.96 622.42 490.9 632.22 488.69 632.22 490.16 637.81 476.19 640.5 477.66 644.9 473.01 645.94 475.95 657.93 466.14 660.89 471.54 679.52 484.28 675.54 485.5 678.29 505.55 673.11 506.61 675.54 520.55 671.71 518.34 660.16 530.11 656.94 531.07 660.23 544.5 656.26 542.99 648.58 567.12 642.68 568.49 648.58 608.36 638.43 607.64 633.91 644.58 624.04 636.77 594.15 623.62 597.85 622.51 594.56 610.29 598.13 609.4 593.74 605.37 594.7 605.1 592.64 600.85 594.01 600.71 591.68 589.81 594.29 588.37 588.39 591.94 587.43 589.81 579.07 596.05 577.43 596.78 579.89 608.39 576.6 609.76 581.13 620.59 578.11 619.22 572.76 634.85 569.2 631.15 553.02 635.95 551.65 630.05 530.4 584.12 542.47 582.89 537.81 542.72 548.91 543.68 553.3 518.51 560.29 517.36 556.04 504.34 559.88 505.02 564.54 493.37 567.28 491.86 562.07 474.04 567.14 474.72 571.69" />
	</g>
	<g id="AMO_B21-2" data-name="AMO_B21">
		<path class="cls-6" d="M470.86,680.78l-5.95-20.56,9.84-3-3-12.06,4.57-1-1.48-4.44,14-2.7-1.53-5.81h2.16l-2.85-9.53,14.15-3.45-.54-3.07-5.27.5v-2.18l-4.35,1.37-1-3.7-1.42.41,1,2.72-17.11,4.41-1-2.45-8.56,2.14,1.47,2.21-17.3,4.25-2.94-11.75-10.29,2.7-7.83-31.58L473.6,571l-.68-4.54,19.62-5.58,1.52,5.25,9.84-2.31-.67-4.62,14.82-4.37,1.17,4.27,23.28-6.47-1-4.39,42.06-11.63,1.23,4.68,45.92-12.07,6.42,23.16-4.84,1.38L636.05,570l-15.61,3.56,1.36,5.3-12.71,3.54-1.37-4.52-11.62,3.3-.73-2.49L591,579.79l2.13,8.35-3.57,1,1,4,11.1-2.66.13,2.24,4.16-1.35.29,2.15,3.95-.94.88,4.33,12.1-3.52,1.11,3.29,13.22-3.72,8.32,31.84-37,9.89.72,4.54L567.75,649.8l-1.37-5.91-22.22,5.43,1.5,7.64-15.27,4.52-1-3.31-9.92,2.71,2.21,11.55L506,676.73,505,674.29l-20,5.18-1.21-2.71Zm-3.48-19.22,4.83,16.7,12.62-3.94,1.24,2.79,20.06-5.19,1.05,2.42L519.39,671l-2.2-11.55,13.6-3.72,1,3.27,11.6-3.43-1.52-7.73,26-6.36,1.37,5.89,38-9.67-.71-4.51,36.84-9.85-7.3-27.94L623,599.07l-1.11-3.28-12.34,3.6-.9-4.44-4.1,1-.26-2-4.34,1.4-.15-2.43-10.71,2.56-1.9-7.81,3.55-1-2.12-8.36,8.13-2.15.73,2.45,11.6-3.29,1.37,4.53,9-2.49L618,572l15.65-3.57L630,552.32l4.76-1.36-5.37-19.34-45.94,12.07L582.18,539,543.9,549.62l1,4.39-27.05,7.51-1.15-4.23-11.2,3.3.68,4.71-13.47,3.17-1.5-5.16-16,4.55.68,4.56-47.7,13.21L435,613.35l10.29-2.7,2.95,11.78,12.6-3.09-1.47-2.21,13-3.25,1,2.45,13.28-3.43-1-2.67,5.44-1.55,1,3.65,5-1.57v2.71L502,613l1.19,6.73-13.92,3.41,3,10.08H490l1.41,5.37-13.9,2.67,1.46,4.37-4.74,1.07,2.93,11.91Z" />
	</g>
	<g id="AMO_B23" class="cls-5">
		<polygon class="cls-6" points="811.13 408.55 859.15 396.22 867.55 425.59 857.29 428.38 860.6 440.05 845.81 444.31 845.98 441.66 835.29 444.7 835.66 447.31 820.53 451.48 820.04 448.66 816.58 449.51 817.56 453.19 812.79 454.24 814.01 456.36 809.36 458.47 811.05 463.15 824.93 459.13 827.26 469.1 829.18 468 830.69 473.58 844.14 468.95 845.06 473.5 849.61 472.08 853.04 483.94 863.01 481.62 867.62 500.46 854.59 503.36 854.89 506.35 834.93 511.85 835.22 514.48 821.23 518.11 817.39 506.99 805.59 510.07 806.39 513.4 792.76 516.64 790.25 509.24 766.39 516.15 768.14 521.94 728.51 533.01 726.88 528.73 689.94 538.58 681.82 508.77 695.07 505.43 694.39 502.02 706.76 499.03 705.35 494.78 709.32 493.61 708.53 491.69 712.9 490.76 711.86 488.67 722.61 485.49 720.91 479.67 717.35 480.61 715.02 472.3 708.79 473.98 709.39 476.49 697.68 479.42 698.75 484.02 687.86 486.81 686.38 481.49 671.05 486.18 666.2 470.31 661.36 471.51 655.88 450.15 701.72 437.73 700.46 433.07 740.82 422.69 742.18 426.97 767.48 420.49 766.37 416.23 779.56 413.07 781.3 417.45 792.77 414.02 791.48 408.75 809.46 404.27 811.13 408.55" />
	</g>
	<g id="AMO_B23-2" data-name="AMO_B23">
		<path class="cls-6" d="M689.24,539.8l-8.65-31.75,13.31-3.36-.68-3.41,12.25-3-1.4-4.2L708,493l-.82-2,4.28-.91-1-2,10.94-3.23-1.14-3.94-3.58.95-2.32-8.31L710,474.69l.6,2.53-11.71,2.93,1.07,4.6L687.16,488l-1.47-5.28-15.3,4.69-4.86-15.92-4.89,1.21-6-23.27L700.49,437l-1.26-4.67,42.26-10.88,1.35,4.29,23.42-6-1.12-4.27,15-3.6,1.72,4.33,9.68-2.89-1.3-5.32,19.8-4.93,1.67,4.27L859.85,395l8.94,31.28-10.26,2.79,3.3,11.65-17.12,4.93.18-2.65-8.49,2.41.37,2.62-17,4.7-.5-2.86-1.43.36,1,3.7-4.46,1,1.09,1.9L810.61,459l1.06,2.93,14-4.05,2.27,9.68,1.87-1.08,1.57,5.8,13.52-4.65.93,4.58,4.47-1.39,3.44,11.93,10-2.33,5.08,20.79-13.16,2.93.31,2.95-20,5.5.29,2.64-15.72,4.08-3.85-11.12-10,2.6.81,3.35-15.49,3.69-2.5-7.37-22,6.37,1.75,5.8-41.48,11.59-1.64-4.29Zm-6.18-30.31,7.58,27.87,36.86-9.83,1.62,4.27,37.77-10.55-1.75-5.78L790.89,508l2.53,7.45,11.77-2.8-.81-3.31L818,505.79l3.84,11.12,12.26-3.18-.29-2.62,20-5.49-.31-3.05,12.9-2.87-4.13-16.88-9.93,2.31-3.4-11.79-4.65,1.44-.91-4.52L830,474.87l-1.45-5.36-1.95,1.12-2.4-10.25-13.78,4-2.32-6.43,4.49-2-1.35-2.35,5.08-1.11-1-3.65,5.49-1.36.49,2.79,13.22-3.64-.37-2.61,12.89-3.66L846.9,443l12.46-3.59-3.31-11.68,10.26-2.79-7.85-27.46-47.94,12.31-1.67-4.28-16.16,4,1.27,5.23-13.25,4L779,414.25,767.59,417l1.11,4.25-27.19,7-1.36-4.28-38.46,9.9,1.25,4.64L657.1,450.86l5,19.44,4.8-1.19,4.84,15.82,15.35-4.7,1.49,5.36,9-2.29-1.07-4.61,11.7-2.93-.6-2.49,8.13-2.19,2.32,8.31,3.56-.94,2.24,7.72-10.56,3.12,1.09,2.17-4.46,1,.75,1.84-4,1.19,1.43,4.3-12.49,3,.67,3.4Z" />
	</g>
	<g id="AMO_B21-3" data-name="AMO_B21">
		<path class="cls-4" d="M502.71,590.8h5.52a6.5,6.5,0,0,1,1.58.19,4.08,4.08,0,0,1,1.39.62,3.31,3.31,0,0,1,1,1.11,3.34,3.34,0,0,1,.38,1.64,2.92,2.92,0,0,1-.68,2,3.81,3.81,0,0,1-1.78,1.12v0a3.66,3.66,0,0,1,1.23.37,3.25,3.25,0,0,1,1,.74,3.33,3.33,0,0,1,.63,1,3.54,3.54,0,0,1,.23,1.27,3.49,3.49,0,0,1-1.67,3.17,5.15,5.15,0,0,1-1.72.67,10,10,0,0,1-2,.2h-5.1Zm2.52,5.76h2.3a3,3,0,0,0,1.89-.49,1.7,1.7,0,0,0,0-2.66,3.75,3.75,0,0,0-2.09-.45h-2.08Zm0,6.24h2.32a9.58,9.58,0,0,0,1-.06,3,3,0,0,0,1-.28,2,2,0,0,0,.76-.63,1.83,1.83,0,0,0,.3-1.11,1.66,1.66,0,0,0-.73-1.56,4.57,4.57,0,0,0-2.27-.44h-2.42Z" />
		<path class="cls-4" d="M515.49,589.84h2.4V605h-2.4Z" />
		<path class="cls-4" d="M520.17,600.16a5.13,5.13,0,0,1,.41-2.07,4.74,4.74,0,0,1,1.11-1.59,4.93,4.93,0,0,1,1.66-1,6,6,0,0,1,4.08,0,4.93,4.93,0,0,1,1.66,1,4.74,4.74,0,0,1,1.11,1.59,5.43,5.43,0,0,1,0,4.14,4.74,4.74,0,0,1-1.11,1.59,4.93,4.93,0,0,1-1.66,1,6,6,0,0,1-4.08,0,4.93,4.93,0,0,1-1.66-1,4.74,4.74,0,0,1-1.11-1.59A5.13,5.13,0,0,1,520.17,600.16Zm2.4,0a3.07,3.07,0,0,0,.19,1.08,2.71,2.71,0,0,0,.56.92,2.74,2.74,0,0,0,.89.64,3,3,0,0,0,2.36,0,2.74,2.74,0,0,0,.89-.64,2.71,2.71,0,0,0,.56-.92,3.16,3.16,0,0,0,0-2.16,2.71,2.71,0,0,0-.56-.92,2.74,2.74,0,0,0-.89-.64,3,3,0,0,0-2.36,0,2.74,2.74,0,0,0-.89.64,2.71,2.71,0,0,0-.56.92A3.07,3.07,0,0,0,522.57,600.16Z" />
		<path class="cls-4" d="M539.41,598.24a3.76,3.76,0,0,0-.88-.7,1.93,1.93,0,0,0-.94-.26,2.8,2.8,0,0,0-1.18.24,2.74,2.74,0,0,0-.89.64,2.71,2.71,0,0,0-.56.92,3.16,3.16,0,0,0,0,2.16,2.71,2.71,0,0,0,.56.92,2.74,2.74,0,0,0,.89.64,2.8,2.8,0,0,0,1.18.24,2.43,2.43,0,0,0,1-.23,2.29,2.29,0,0,0,.82-.67l1.6,1.72a3.67,3.67,0,0,1-.83.62,6.11,6.11,0,0,1-1,.42,7.27,7.27,0,0,1-.92.23,4.55,4.55,0,0,1-.76.07,5.76,5.76,0,0,1-2-.36,4.93,4.93,0,0,1-1.66-1,4.74,4.74,0,0,1-1.11-1.59,5.43,5.43,0,0,1,0-4.14,4.74,4.74,0,0,1,1.11-1.59,4.93,4.93,0,0,1,1.66-1,5.76,5.76,0,0,1,2-.36,5.31,5.31,0,0,1,1.85.35,4.16,4.16,0,0,1,1.63,1.11Z" />
		<path class="cls-4" d="M542.49,589.84h2.4v9.5l3.7-4h3.08l-4.12,4.36,4.38,5.24h-3.18l-3.82-4.9h0V605h-2.4Z" />
		<path class="cls-4" d="M559,602.42l5.5-5.32.5-.51a5.08,5.08,0,0,0,.47-.57,3.25,3.25,0,0,0,.35-.63,1.81,1.81,0,0,0,.14-.69,1.79,1.79,0,0,0-.17-.78,1.71,1.71,0,0,0-.45-.58,2.08,2.08,0,0,0-.65-.37,2.3,2.3,0,0,0-.79-.13,2.11,2.11,0,0,0-1.48.52,2.19,2.19,0,0,0-.7,1.4l-2.52-.2a4.47,4.47,0,0,1,.47-1.73,3.89,3.89,0,0,1,1-1.25,4.31,4.31,0,0,1,1.44-.76,6,6,0,0,1,1.78-.26,6.1,6.1,0,0,1,1.79.25,4.32,4.32,0,0,1,1.45.74,3.48,3.48,0,0,1,1,1.25,4.13,4.13,0,0,1,.36,1.78,4.24,4.24,0,0,1-.61,2.31,9.19,9.19,0,0,1-1.57,1.85l-4.38,4.06h6.56V605H559Z" />
		<path class="cls-4" d="M575,593.56,572.33,596l-1.4-1.66,4.28-3.56h2.18V605H575Z" />
	</g>
	<g id="AMO_B23-3" data-name="AMO_B23">
		<path class="cls-4" d="M725.34,458.25h5.52a6.5,6.5,0,0,1,1.58.19,3.9,3.9,0,0,1,1.39.62,3.2,3.2,0,0,1,1.37,2.75,2.92,2.92,0,0,1-.68,2,3.86,3.86,0,0,1-1.78,1.12v0a3.45,3.45,0,0,1,1.23.37,3.25,3.25,0,0,1,1,.74,3.61,3.61,0,0,1,.63,1,3.5,3.5,0,0,1,.23,1.27,3.49,3.49,0,0,1-1.67,3.17,5.46,5.46,0,0,1-1.72.67,10.05,10.05,0,0,1-2,.2h-5.1Zm2.52,5.76h2.3a3.09,3.09,0,0,0,1.89-.49,1.7,1.7,0,0,0,0-2.66,3.77,3.77,0,0,0-2.09-.45h-2.08Zm0,6.24h2.32a9.58,9.58,0,0,0,1-.06,3.36,3.36,0,0,0,1-.28,2.11,2.11,0,0,0,.76-.63,1.87,1.87,0,0,0,.3-1.11,1.68,1.68,0,0,0-.73-1.56,4.48,4.48,0,0,0-2.27-.44h-2.42Z" />
		<path class="cls-4" d="M738.12,457.29h2.4v15.12h-2.4Z" />
		<path class="cls-4" d="M742.8,467.61a5,5,0,0,1,.41-2.07,4.74,4.74,0,0,1,1.11-1.59,4.83,4.83,0,0,1,1.66-1,6,6,0,0,1,4.08,0,4.93,4.93,0,0,1,1.66,1,5,5,0,0,1,1.11,1.59,5.43,5.43,0,0,1,0,4.14,5,5,0,0,1-1.11,1.59,4.93,4.93,0,0,1-1.66,1,6,6,0,0,1-4.08,0,4.83,4.83,0,0,1-1.66-1,4.74,4.74,0,0,1-1.11-1.59A5,5,0,0,1,742.8,467.61Zm2.4,0a3.07,3.07,0,0,0,.19,1.08,2.65,2.65,0,0,0,.56.92,2.92,2.92,0,0,0,3.25.64,2.73,2.73,0,0,0,1.45-1.56,3.32,3.32,0,0,0,.19-1.08,3.23,3.23,0,0,0-.19-1.08,2.77,2.77,0,0,0-.56-.92,2.85,2.85,0,0,0-.89-.64,2.8,2.8,0,0,0-1.18-.24,2.76,2.76,0,0,0-1.18.24,2.64,2.64,0,0,0-.89.64,2.48,2.48,0,0,0-.56.92A3,3,0,0,0,745.2,467.61Z" />
		<path class="cls-4" d="M762,465.69a3.71,3.71,0,0,0-.88-.7,1.83,1.83,0,0,0-.94-.26A2.76,2.76,0,0,0,759,465a2.64,2.64,0,0,0-.89.64,2.48,2.48,0,0,0-.56.92,3,3,0,0,0-.19,1.08,3.07,3.07,0,0,0,.19,1.08,2.65,2.65,0,0,0,.56.92,2.74,2.74,0,0,0,2.07.88,2.43,2.43,0,0,0,1-.23,2.4,2.4,0,0,0,.82-.67l1.6,1.72a4,4,0,0,1-.83.62,6.56,6.56,0,0,1-1,.42,7.27,7.27,0,0,1-.92.23,6.1,6.1,0,0,1-.76.07,5.76,5.76,0,0,1-2-.36,4.83,4.83,0,0,1-1.66-1,4.74,4.74,0,0,1-1.11-1.59,5.43,5.43,0,0,1,0-4.14,4.74,4.74,0,0,1,1.11-1.59,4.83,4.83,0,0,1,1.66-1,5.76,5.76,0,0,1,2-.36,5.09,5.09,0,0,1,1.85.35A4.16,4.16,0,0,1,763.7,464Z" />
		<path class="cls-4" d="M765.12,457.29h2.4v9.5l3.7-4h3.08l-4.12,4.36,4.38,5.24h-3.18l-3.82-4.9h0v4.9h-2.4Z" />
		<path class="cls-4" d="M781.6,469.87l5.5-5.32.5-.51a5.08,5.08,0,0,0,.47-.57,3.88,3.88,0,0,0,.35-.63,1.81,1.81,0,0,0,.14-.69,1.73,1.73,0,0,0-.17-.78,1.9,1.9,0,0,0-1.1-.95,2.3,2.3,0,0,0-.79-.13,2.11,2.11,0,0,0-1.48.52,2.17,2.17,0,0,0-.7,1.4l-2.52-.2a4.42,4.42,0,0,1,.47-1.73,3.76,3.76,0,0,1,1-1.25,4.14,4.14,0,0,1,1.44-.76,5.63,5.63,0,0,1,1.78-.26,6.1,6.1,0,0,1,1.79.25,4.23,4.23,0,0,1,1.45.74,3.4,3.4,0,0,1,1,1.25,4.1,4.1,0,0,1,.36,1.78,4.32,4.32,0,0,1-.61,2.31,9.48,9.48,0,0,1-1.57,1.85l-4.38,4.06h6.56v2.16H781.6Z" />
		<path class="cls-4" d="M796.7,464h.62a8.43,8.43,0,0,0,1-.06,2.73,2.73,0,0,0,.88-.26,1.67,1.67,0,0,0,.63-.58,1.93,1.93,0,0,0,.24-1,1.74,1.74,0,0,0-.56-1.34,2.06,2.06,0,0,0-1.46-.52,2.11,2.11,0,0,0-1.29.41,2.25,2.25,0,0,0-.83,1.15l-2.54-.68a4.13,4.13,0,0,1,.68-1.36,3.61,3.61,0,0,1,1-.95,4.55,4.55,0,0,1,1.32-.55,6.39,6.39,0,0,1,3.24.06,4.41,4.41,0,0,1,1.44.71,3.45,3.45,0,0,1,1,1.18,3.58,3.58,0,0,1,.37,1.65,3.45,3.45,0,0,1-.64,2,3,3,0,0,1-1.78,1.17v0a3,3,0,0,1,2.06,1.16,3.81,3.81,0,0,1,.7,2.28,3.84,3.84,0,0,1-1.44,3.11,4.65,4.65,0,0,1-1.53.8,6.1,6.1,0,0,1-1.81.27,7.34,7.34,0,0,1-1.66-.19,4.94,4.94,0,0,1-1.41-.59,4,4,0,0,1-1.09-1,4.57,4.57,0,0,1-.7-1.51l2.56-.68a2.48,2.48,0,0,0,.78,1.36,2.25,2.25,0,0,0,1.52.48,2.76,2.76,0,0,0,.91-.16,2.63,2.63,0,0,0,.76-.45,2.24,2.24,0,0,0,.52-.7,2.28,2.28,0,0,0,.19-.91,1.85,1.85,0,0,0-1-1.77,3,3,0,0,0-1-.31,7,7,0,0,0-1.1-.08h-.58Z" />
	</g>
</svg>
