<?xml version="1.0" encoding="utf-8"?>
<!-- Generator: Adobe Illustrator 25.2.1, SVG Export Plug-In . SVG Version: 6.00 Build 0)  -->
<svg version="1.1" id="Layer_1" xmlns="http://www.w3.org/2000/svg" xmlns:xlink="http://www.w3.org/1999/xlink" x="0px" y="0px"
	 viewBox="0 0 800 240" style="enable-background:new 0 0 800 240;" xml:space="preserve">
<style type="text/css">
	.st0{fill:#48C1C4;}
	.st1{fill:#F9B617;}
	.st2{fill:#F79529;}
	.st3{fill:#A7402E;}
	.st4{fill:#6F271B;}
	.st5{fill:#4B292A;}
	.st6{fill:#F4F2DD;}
	.st7{fill:#F8CC25;}
	.st8{fill:#221A18;}
	.st9{fill:#33BCB7;}
</style>
<g>
	<g>
		<circle class="st0" cx="118.5" cy="119.6" r="117"/>
		<path class="st1" d="M132.9,67.2l-13.8,23.4l-17.3-29.9L46.1,49c12-27.3,39.4-46.4,71.1-46.4c32.1,0,59.6,19.5,71.5,47.2
			L132.9,67.2z"/>
		<path class="st2" d="M78.9,12.7c4.7,0.9,24.8,5.1,38,16.6c0,0,20.8-12.6,38.4-16.7c-11.3-6.4-24.3-10-38.1-10
			C103.3,2.6,90.2,6.2,78.9,12.7z"/>
		<g>
			<path class="st3" d="M118.4,97.2L39.6,106l0.1,25.8c61,48.3,36.6,93.5,34.7,96.7c13.1,5.2,27.4,8.4,42.4,8.4
				c29.4,0,56.6-9.6,76.9-27.7c2.8-4.7,4.2-9.9,4.2-23.6c0-9.7-0.4-80.9-0.4-80.9L118.4,97.2z"/>
		</g>
		<path class="st4" d="M39.6,108.8l0.1,23c0,0,15.9,31.3,48.7,39.6c0,0,72,14.2,99.7-52.8C188.1,118.7,99.4,218.4,39.6,108.8
			L39.6,108.8z"/>
		<path class="st2" d="M38.7,106l151.7,6.1c-22.3,49.2-66,49.9-66,49.9C57,166.7,38.7,106,38.7,106"/>
		<path id="Wing_6_" class="st1" d="M39.8,131.7L9.3,161.8c11.4,30.3,34.9,55,65,66.8C102.8,174.8,39.8,131.7,39.8,131.7z"/>
		<g id="Eyes_3_">
			<path class="st5" d="M94.5,183.3h19.2C113.7,183.3,104.4,199.2,94.5,183.3"/>
			<path class="st5" d="M105.5,198.1h19.2C124.7,198.1,115.4,214,105.5,198.1"/>
			<path class="st5" d="M129.1,198.1h19.2C148.3,198.1,139,214,129.1,198.1"/>
			<path class="st5" d="M117.6,212h19.2C136.8,212,127.6,227.9,117.6,212"/>
			<path class="st5" d="M117,183.3h19.2C136.2,183.3,126.9,199.2,117,183.3"/>
			<path class="st5" d="M139.9,183.3h19.2C159.1,183.3,149.8,199.2,139.9,183.3"/>
		</g>
		<path class="st1" d="M188.7,49.8"/>
		<g>
			<path class="st3" d="M96.5,113.5c3.5,0.9,19.3,5.6,23,14.9c0,0,10-13.2,18.7-16.4c0,0-20-10-21-26.4
				C117.2,85.5,101.8,113.4,96.5,113.5"/>
			<path class="st4" d="M204.7,81.5c0,22.9-19.6,41.5-43.9,41.5s-43.5-18.6-43.9-41.5c-0.5-31.2,32.1-38,62.6-49.5
				c24.1-9.1,36.4-30.1,36.4-30.1l-3.6,24.9c0,0-5.4,13.4-25.4,19.1C195.2,51.9,204.7,63.2,204.7,81.5z"/>
			<path class="st6" d="M195.1,81.8c0,17.4-14.9,31.5-33.2,31.5s-35.1-14.2-33.2-31.5c2.4-21.9,25.2-25.1,46.8-32.2
				C179.1,52,195.1,61,195.1,81.8z"/>
			<path class="st7" d="M186.8,81.8h-49.9c0,0-1.1,21.4,20,24.8C157,106.6,182.9,111.6,186.8,81.8"/>
			<path class="st5" d="M179.5,81.8h-33.9c0,0-0.8,14.6,13.6,16.9C159.3,98.7,176.9,102.1,179.5,81.8"/>
			<path class="st8" d="M153.6,81.8h18c0,0,0.4,7.7-7.2,8.9C164.4,90.8,155,92.6,153.6,81.8"/>
			<path class="st6" d="M157.4,85.2c0,0.6-0.5,1.1-1.1,1.1c-0.6,0-1.1-0.5-1.1-1.1c0-0.6,0.5-1.1,1.1-1.1
				C156.8,84.1,157.4,84.6,157.4,85.2"/>
			<path class="st4" d="M29.2,84.1c0,22.9,19.6,41.5,43.9,41.5S116.6,107,117,84.1c0.5-31.2-32.1-38-62.6-49.5
				C30.3,25.4,18,4.5,18,4.5l3.6,24.9c0,0,5.4,13.4,25.4,19.1C38.7,54.5,29.2,65.7,29.2,84.1z"/>
			<path class="st6" d="M38.9,84.4c0,17.4,14.9,31.5,33.2,31.5s35.1-14.2,33.2-31.5c-2.4-21.9-25.2-25.1-46.8-32.2
				C54.8,54.5,38.8,63.5,38.9,84.4z"/>
			<path class="st7" d="M47.1,84.4H97c0,0,1.1,21.4-20,24.8C77,109.2,51,114.2,47.1,84.4"/>
			<path class="st5" d="M54.4,84.4h33.9c0,0,0.8,14.6-13.6,16.9C74.6,101.2,57,104.6,54.4,84.4"/>
			<path class="st8" d="M80.3,84.4h-18c0,0-0.4,7.7,7.2,8.9C69.6,93.3,78.9,95.1,80.3,84.4"/>
			<path class="st6" d="M76.6,87.8c0,0.6,0.5,1.1,1.1,1.1c0.6,0,1.1-0.5,1.1-1.1c0-0.6-0.5-1.1-1.1-1.1
				C77.1,86.6,76.6,87.1,76.6,87.8"/>
		</g>
	</g>
	<g>
		<path class="st9" d="M383.1,87c-2.3-2.3-5-4.1-8.1-5.5c-3.1-1.3-6.4-2-9.8-2c-4.2,0-7.9,0.9-11.3,2.7c-3.4,1.8-6.3,4.2-8.8,7.2
			c-2.4-3-5.3-5.5-8.7-7.2c-3.4-1.8-7.2-2.7-11.2-2.7c-3.5,0-6.8,0.7-9.8,2c-3.1,1.4-5.8,3.2-8.1,5.5c-2.3,2.3-4.1,5-5.5,8.1
			c-1.4,3.1-2,6.4-2,9.9l0,42.4h10.8l0-42.4c0-2,0.4-3.9,1.1-5.7c0.8-1.7,1.8-3.3,3.1-4.6c1.3-1.3,2.9-2.4,4.6-3.1
			c1.8-0.8,3.7-1.1,5.7-1.1s3.9,0.4,5.6,1.1c1.7,0.7,3.3,1.8,4.7,3.1c1.4,1.3,2.4,2.8,3.2,4.6c0.8,1.7,1.1,3.6,1.1,5.7l0,42.4h10.8
			l0-42.4c0-2,0.4-3.9,1.1-5.7c0.8-1.7,1.8-3.3,3.1-4.6c1.3-1.3,2.9-2.4,4.6-3.1c1.8-0.8,3.7-1.1,5.7-1.1c2,0,3.9,0.4,5.7,1.1
			c1.7,0.7,3.3,1.8,4.6,3.1c1.3,1.3,2.4,2.8,3.1,4.6c0.8,1.7,1.1,3.6,1.1,5.7l0,42.4h10.9l0-42.4c0-3.5-0.7-6.8-2-9.9
			C387.2,92,385.4,89.3,383.1,87z"/>
		<path class="st9" d="M601.3,120.9c0,2-0.4,3.9-1.1,5.7c-0.7,1.8-1.8,3.3-3.1,4.6c-1.3,1.3-2.9,2.4-4.6,3.1
			c-1.7,0.8-3.6,1.1-5.7,1.1c-2,0-3.9-0.4-5.7-1.1c-1.8-0.8-3.3-1.8-4.6-3.1c-1.3-1.3-2.3-2.9-3.1-4.6c-0.8-1.8-1.1-3.7-1.1-5.7
			V79.5h-10.8v41.4c0,3.5,0.7,6.8,2,9.8c1.3,3.1,3.1,5.8,5.4,8.1c2.3,2.3,5,4.1,8.1,5.5c3.1,1.4,6.4,2,10,2c3.5,0,6.8-0.7,9.9-2
			c3.1-1.4,5.8-3.2,8.1-5.5c2.3-2.3,4.1-5,5.5-8.1c1.4-3.1,2-6.4,2-9.8V79.5h-10.9L601.3,120.9L601.3,120.9z"/>
		<path class="st9" d="M634.4,128.7V52.2h-10.8v76.5c0,2.5,0.5,4.8,1.6,6.9c1.1,2.1,2.5,4,4.3,5.6c1.8,1.6,3.9,2.9,6.3,3.8
			c2.4,0.9,5,1.4,7.8,1.4v-10.8c-2.6,0-4.7-0.7-6.6-2C635.3,132.3,634.4,130.6,634.4,128.7z"/>
		<path class="st9" d="M540.2,89.2c-3-3-6.6-5.3-10.7-7.1c-4.1-1.7-8.4-2.6-13-2.6c-4.6,0-8.9,0.9-13,2.6c-4,1.8-7.5,4.1-10.6,7.1
			c-3,3-5.4,6.6-7.2,10.7c-1.8,4.1-2.6,8.5-2.6,13.1c0,4.6,0.9,9,2.6,13c1.7,4,4.1,7.5,7.2,10.6c3,3,6.5,5.4,10.6,7.2
			c4,1.8,8.3,2.6,13,2.6c2.1,0,4,0.4,5.7,1.1c1.7,0.8,3.3,1.8,4.7,3.2c1.4,1.4,2.4,2.9,3.2,4.7c0.8,1.7,1.1,3.7,1.1,5.7
			c0,2.1-0.4,4-1.3,5.7c-0.9,1.7-2.1,3.3-3.7,4.7c-1.5,1.4-3.4,2.4-5.5,3.2c-2.1,0.8-4.3,1.2-6.6,1.2c0,0-11.5,1.1-21.1-5.1
			l-1.9,11.6c0,0,10.1,4.5,23,4.4c3.9,0,7.5-0.7,10.8-2.1c3.4-1.4,6.3-3.2,8.9-5.5c2.6-2.3,4.6-5,6-8.2c1.5-3.1,2.2-6.4,2.2-9.9
			c0-3.8-0.8-7.3-2.4-10.7c-1.6-3.4-3.7-6.3-6.2-8.7c5.1-2.9,9-6.9,12-11.9c3-5,4.4-10.6,4.4-16.8c0-4.6-0.9-9-2.6-13.1
			C545.6,95.8,543.2,92.2,540.2,89.2z M537.2,121.7c-1.2,2.7-2.7,5.1-4.7,7.1c-2,2-4.4,3.6-7.1,4.8c-2.7,1.2-5.7,1.8-8.9,1.8
			c-3.1,0-6-0.6-8.7-1.8c-2.7-1.2-5.1-2.8-7.1-4.8c-2-2-3.6-4.4-4.8-7.1c-1.2-2.7-1.8-5.6-1.8-8.7c0-3.1,0.6-6,1.8-8.7
			c1.2-2.7,2.8-5.1,4.8-7.2c2-2.1,4.4-3.7,7.1-4.8c2.7-1.2,5.6-1.7,8.7-1.7c3.2,0,6.1,0.6,8.9,1.7c2.7,1.2,5.1,2.8,7.1,4.8
			c2,2.1,3.6,4.5,4.7,7.2c1.2,2.7,1.7,5.6,1.7,8.7C539,116.1,538.4,119,537.2,121.7z"/>
		<path class="st9" d="M461.3,89.6c-3.1-3-6.7-5.4-10.8-7.2c-4.1-1.8-8.5-2.7-13.2-2.7c-4.7,0-9,0.9-13.1,2.7
			c-4.1,1.8-7.6,4.2-10.7,7.2c-3.1,3-5.5,6.6-7.3,10.8c-1.8,4.2-2.7,8.6-2.7,13.2c0,4.7,0.9,9.1,2.7,13.2c1.8,4.1,4.2,7.7,7.3,10.7
			c3.1,3,6.6,5.4,10.7,7.2c4.1,1.8,8.4,2.7,13.1,2.7c4.7,0,9.1-0.9,13.2-2.7c4.1-1.8,7.7-4.2,10.8-7.2c3.1-3,5.5-6.6,7.3-10.7
			c1.8-4.1,2.7-8.5,2.7-13.2c0-4.7-0.9-9.1-2.7-13.2C466.8,96.2,464.4,92.6,461.3,89.6z M458.3,122.4c-1.2,2.8-2.8,5.2-4.9,7.2
			c-2.1,2-4.5,3.6-7.3,4.9c-2.8,1.2-5.7,1.8-8.8,1.8c-3.1,0-6.1-0.6-8.8-1.8c-2.8-1.2-5.2-2.8-7.3-4.9c-2.1-2-3.7-4.4-4.9-7.2
			c-1.2-2.8-1.8-5.7-1.8-8.8c0-3.1,0.6-6.1,1.8-8.8c1.2-2.8,2.8-5.2,4.9-7.3c2.1-2.1,4.5-3.7,7.3-4.9c2.8-1.2,5.7-1.7,8.8-1.7
			c3.1,0,6.1,0.6,8.8,1.7c2.8,1.2,5.2,2.8,7.3,4.9c2.1,2.1,3.7,4.5,4.9,7.3c1.2,2.8,1.7,5.7,1.7,8.8
			C460,116.7,459.5,119.7,458.3,122.4z"/>
		<path class="st9" d="M792.6,129.6c2.9-5,4.4-10.6,4.4-16.7c0-4.6-0.9-8.9-2.6-13c-1.7-4.1-4.1-7.6-7.1-10.6c-3-3-6.5-5.3-10.6-7.1
			c-4-1.7-8.3-2.6-12.9-2.6c-4.6,0-8.9,0.9-12.9,2.6c-4,1.7-7.5,4.1-10.5,7.1c-3,3-5.4,6.5-7.1,10.6c-1.7,4.1-2.6,8.4-2.6,13
			c0,4.6,0.9,8.9,2.6,12.9c1.7,4,4.1,7.5,7.1,10.5c3,3,6.5,5.4,10.5,7.1c4,1.7,8.3,2.6,12.9,2.6c2,0,3.9,0.4,5.7,1.1
			c1.7,0.8,3.3,1.8,4.7,3.2c1.3,1.4,2.4,2.9,3.2,4.6c0.8,1.7,1.2,3.6,1.2,5.7c0,2-0.4,3.9-1.3,5.7c-0.9,1.7-2.1,3.3-3.6,4.6
			c-1.5,1.4-3.3,2.4-5.4,3.2c-2.1,0.8-4.3,1.1-6.6,1.1c0,0-11.4,1-20.9-5.1l-1.9,11.5c0,0,10.1,4.4,22.9,4.4c3.8,0,7.4-0.7,10.8-2
			c3.4-1.4,6.3-3.2,8.9-5.5c2.5-2.3,4.5-5,6-8.1c1.4-3.1,2.2-6.4,2.2-9.9c0-3.7-0.8-7.3-2.4-10.6c-1.6-3.3-3.7-6.2-6.1-8.6
			C785.7,138.6,789.7,134.6,792.6,129.6z M784.4,121.6c-1.1,2.7-2.7,5.1-4.7,7.1c-2,2-4.4,3.6-7.1,4.8c-2.7,1.2-5.6,1.8-8.8,1.8
			c-3.1,0-6-0.6-8.7-1.8c-2.7-1.2-5.1-2.8-7.1-4.8c-2-2-3.6-4.4-4.8-7.1c-1.2-2.7-1.8-5.6-1.8-8.7c0-3.1,0.6-5.9,1.8-8.7
			c1.2-2.7,2.8-5.1,4.8-7.1c2-2,4.4-3.6,7.1-4.8c2.7-1.1,5.6-1.7,8.7-1.7c3.1,0,6.1,0.6,8.8,1.7c2.7,1.2,5.1,2.7,7.1,4.8
			c2,2,3.6,4.4,4.7,7.1c1.1,2.7,1.7,5.6,1.7,8.7C786.1,116,785.5,118.9,784.4,121.6z"/>
		<rect x="657.2" y="136.6" class="st9" width="11.3" height="10.6"/>
		<path class="st9" d="M715.9,113.7c-1.6-1.6-3.5-2.8-5.6-3.7c-2.2-0.9-4.5-1.4-6.9-1.4h-8.9c-1.8,0-3.4-0.6-4.7-1.9
			c-1.3-1.3-2.1-2.8-2.3-4.6c-0.2-1-0.2-1.9,0-2.7c0.2-1.9,0.9-3.5,2.3-4.7c1.3-1.2,2.9-1.9,4.7-1.9h24.9V81.7h-24.9
			c-2.4,0-4.7,0.4-6.8,1.3c-2.1,0.9-4,2.1-5.6,3.6c-1.6,1.6-2.9,3.4-4,5.4c-1,2.1-1.5,4.3-1.6,6.6c-0.1,0.5-0.1,1.2-0.1,2
			c0,0.8,0,1.5,0.1,2c0.1,2.4,0.6,4.7,1.6,6.7c1,2.1,2.3,3.9,4,5.4c1.6,1.5,3.5,2.7,5.6,3.6c2.1,0.9,4.4,1.3,6.8,1.3h8.8
			c2,0,3.6,0.7,5,2c1.3,1.3,2.1,3,2.1,5v2.5c0,0.2,0,0.3-0.1,0.4c0,0.1-0.1,0.3-0.1,0.5v0.5c-0.4,1.6-1.3,2.9-2.5,4
			c-1.3,1.1-2.8,1.7-4.5,1.7h-25.5v11h25.5c2.5,0,4.9-0.5,7.1-1.4c2.2-0.9,4.1-2.2,5.7-3.8c1.6-1.6,2.9-3.5,3.9-5.6
			c1-2.1,1.5-4.4,1.5-6.9v-3.6c-0.1-2.4-0.6-4.7-1.6-6.7C718.8,117.1,717.5,115.3,715.9,113.7z"/>
	</g>
</g>
</svg>
