<svg width="24" height="24" viewBox="0 0 24 24" fill="none" xmlns="http://www.w3.org/2000/svg">
<path d="M12.1701 23.7704C14.4529 23.7724 16.685 23.0973 18.5841 21.8304C20.4832 20.5636 21.9638 18.762 22.8388 16.6535C23.7138 14.545 23.9437 12.2244 23.4996 9.98522C23.0554 7.74603 21.9572 5.68887 20.3437 4.07397C18.7302 2.45907 16.6739 1.35898 14.4351 0.912898C12.1963 0.466814 9.87554 0.694787 7.7663 1.56793C5.65705 2.44107 3.85411 3.92015 2.58563 5.81811C1.31716 7.71607 0.640138 9.94758 0.640137 12.2304C0.640136 15.2893 1.85459 18.223 4.0166 20.3869C6.17861 22.5508 9.11124 23.7678 12.1701 23.7704" fill="#434244"/>
<path d="M12.5002 8.79083L10.9002 9.65088L10.6602 8.71088L12.6602 7.63086H13.7202V16.8309H12.5002V8.79083Z" fill="white"/>
</svg>
