<svg width="24" height="24" viewBox="0 0 24 24" fill="none" xmlns="http://www.w3.org/2000/svg">
<path d="M11.8801 23.8002C14.1629 23.8022 16.3951 23.1271 18.2941 21.8602C20.1932 20.5934 21.6739 18.7918 22.5488 16.6833C23.4238 14.5748 23.6537 12.2542 23.2096 10.015C22.7655 7.77577 21.6671 5.71861 20.0536 4.10371C18.4402 2.48881 16.384 1.38878 14.1451 0.942699C11.9063 0.496615 9.5855 0.724527 7.47626 1.59767C5.36702 2.47081 3.56413 3.94989 2.29565 5.84785C1.02718 7.74581 0.350099 9.97738 0.350098 12.2602C0.350097 15.3191 1.56455 18.2528 3.72656 20.4167C5.88857 22.5806 8.82126 23.7975 11.8801 23.8002" fill="#434244"/>
<path d="M7.4801 8.82037L5.88013 9.69037L5.64014 8.69037L7.64014 7.61035H8.70013V16.8104H7.50012L7.4801 8.82037Z" fill="white"/>
<path d="M18.1502 12.1602C18.1502 15.2902 16.9902 17.0103 14.9502 17.0103C13.1602 17.0103 11.9502 15.3302 11.9502 12.2902C11.9502 9.25022 13.2802 7.51025 15.1502 7.51025C17.0202 7.51025 18.1502 9.23022 18.1502 12.1602ZM13.1502 12.3002C13.1502 14.6902 13.8802 16.0502 15.0102 16.0502C16.1402 16.0502 16.9002 14.5702 16.9002 12.2202C16.9002 9.87021 16.3202 8.47021 15.0302 8.47021C14.0002 8.47021 13.1602 9.80023 13.1602 12.3002H13.1502Z" fill="white"/>
</svg>
