<svg width="24" height="24" viewBox="0 0 24 24" fill="none" xmlns="http://www.w3.org/2000/svg">
<path d="M11.7299 23.6298C14.0123 23.6298 16.2435 22.953 18.1412 21.685C20.039 20.4169 21.518 18.6146 22.3915 16.506C23.2649 14.3973 23.4935 12.077 23.0482 9.83847C22.6029 7.59993 21.5039 5.54371 19.89 3.92981C18.2761 2.31591 16.2198 1.21682 13.9813 0.771544C11.7427 0.32627 9.42244 0.554816 7.31378 1.42825C5.20512 2.30169 3.4028 3.78078 2.13477 5.67853C0.866734 7.57627 0.189941 9.80742 0.189941 12.0898C0.189941 15.1504 1.40578 18.0856 3.56995 20.2498C5.73412 22.414 8.66932 23.6298 11.7299 23.6298" fill="#434244"/>
<path d="M8.42981 8.64975L6.82983 9.51974L6.58984 8.56976L8.58984 7.48975H9.64984V16.6898H8.44983L8.42981 8.64975Z" fill="white"/>
<path d="M15.6899 8.64975L14.0999 9.51974L13.8599 8.56976L15.8599 7.48975H16.9199V16.6898H15.7099L15.6899 8.64975Z" fill="white"/>
</svg>
