<svg width="24" height="24" viewBox="0 0 24 24" fill="none" xmlns="http://www.w3.org/2000/svg">
<path d="M11.58 23.6903C13.8607 23.6824 16.0879 22.9989 17.9803 21.726C19.8728 20.4532 21.3457 18.6481 22.213 16.5388C23.0803 14.4294 23.3031 12.1104 22.8534 9.87454C22.4036 7.63864 21.3014 5.58612 19.6859 3.97623C18.0704 2.36633 16.0141 1.27123 13.7767 0.829192C11.5392 0.38715 9.22098 0.617984 7.11465 1.49258C5.00832 2.36718 3.20838 3.84633 1.94211 5.74319C0.675836 7.64006 1.37008e-05 9.86961 0 12.1503C0 15.2109 1.2158 18.1461 3.37997 20.3103C5.54414 22.4744 8.47941 23.6903 11.54 23.6903" fill="#434244"/>
<path d="M7.29996 8.79034L5.69998 9.65039L5.45996 8.70038L7.45996 7.63037H8.51996V16.8204H7.31998L7.29996 8.79034Z" fill="white"/>
<path d="M11.8599 16.8205V16.0605L12.8599 15.1105C15.2099 12.8805 16.2699 11.6905 16.2899 10.3005C16.3142 10.0559 16.2831 9.80904 16.1992 9.57806C16.1152 9.34709 15.9803 9.13792 15.8047 8.96606C15.629 8.79421 15.4169 8.66407 15.1841 8.5852C14.9514 8.50634 14.7038 8.48082 14.4599 8.5105C13.7408 8.53618 13.0525 8.80803 12.5099 9.28052L12.1099 8.41046C12.8399 7.79582 13.7656 7.46242 14.7199 7.47046C15.0857 7.439 15.4541 7.48572 15.8006 7.60748C16.147 7.72924 16.4636 7.92326 16.7293 8.1767C16.9951 8.43014 17.2039 8.73722 17.3419 9.07751C17.4799 9.41781 17.544 9.78357 17.5299 10.1505C17.5299 11.8405 16.2999 13.2205 14.3599 15.0805L13.6299 15.7605H17.7599V16.7605L11.8599 16.8205Z" fill="white"/>
</svg>
