<svg width="24" height="24" viewBox="0 0 24 24" fill="none" xmlns="http://www.w3.org/2000/svg">
<path d="M12.0602 23.66C14.3431 23.662 16.5752 22.9869 18.4742 21.7201C20.3733 20.4533 21.854 18.6516 22.7289 16.5432C23.6039 14.4347 23.8339 12.1141 23.3897 9.87489C22.9456 7.63569 21.8473 5.57847 20.2338 3.96357C18.6203 2.34868 16.5641 1.24865 14.3253 0.802563C12.0864 0.356478 9.76561 0.58439 7.65637 1.45753C5.54713 2.33067 3.74424 3.80982 2.47577 5.70778C1.20729 7.60573 0.530274 9.83725 0.530273 12.1201C0.530272 15.1789 1.74467 18.1127 3.90668 20.2766C6.06868 22.4404 9.00138 23.6574 12.0602 23.66" fill="#434244"/>
<path d="M9.13037 16.7899V15.9999L10.1304 15.0499C12.4804 12.8199 13.5404 11.6299 13.5604 10.2399C13.5846 9.99536 13.5537 9.74849 13.4697 9.51752C13.3857 9.28655 13.2508 9.07737 13.0751 8.90552C12.8994 8.73366 12.6874 8.60352 12.4547 8.52466C12.2219 8.4458 11.9743 8.42028 11.7303 8.44995C10.994 8.46413 10.2861 8.73664 9.73035 9.21991L9.33038 8.34991C10.0626 7.7391 10.9868 7.40622 11.9404 7.40991C12.3062 7.37845 12.6746 7.42518 13.0211 7.54694C13.3675 7.66869 13.6841 7.86271 13.9498 8.11615C14.2156 8.36959 14.4244 8.67668 14.5624 9.01697C14.7004 9.35726 14.7645 9.72302 14.7504 10.09C14.7504 11.78 13.5204 13.16 11.5804 15.02L10.8503 15.7H15.0004V16.7L9.13037 16.7899Z" fill="white"/>
</svg>
