<svg width="24" height="24" viewBox="0 0 24 24" fill="none" xmlns="http://www.w3.org/2000/svg">
<path d="M11.9199 23.2602C14.2027 23.2602 16.4343 22.5831 18.3322 21.3146C20.2302 20.0462 21.7093 18.2433 22.5824 16.134C23.4555 14.0248 23.6835 11.704 23.2374 9.46516C22.7913 7.22635 21.6913 5.17015 20.0764 3.55665C18.4615 1.94315 16.4043 0.844849 14.1651 0.400705C11.9259 -0.0434383 9.60525 0.186503 7.49677 1.06147C5.38829 1.93644 3.58672 3.41711 2.31989 5.31617C1.05306 7.21523 0.377909 9.44735 0.379887 11.7302C0.379887 13.2452 0.678426 14.7453 1.25849 16.1448C1.83855 17.5444 2.68878 18.8159 3.7605 19.8867C4.83222 20.9575 6.10442 21.8065 7.50446 22.3854C8.9045 22.9642 10.4049 23.2615 11.9199 23.2602" fill="#434244"/>
<path d="M9.38995 14.8903C9.99426 15.2568 10.6834 15.4601 11.39 15.4802C12.99 15.4802 13.4899 14.4802 13.4699 13.6902C13.4699 12.4002 12.2999 11.8502 11.0999 11.8502H10.4V10.9202H11.0999C11.9999 10.9202 13.0999 10.4502 13.0999 9.36023C13.0999 8.63023 12.6299 7.98022 11.4799 7.98022C10.8199 7.99778 10.1798 8.21005 9.63995 8.59027L9.31995 7.68024C10.0346 7.21676 10.8681 6.97014 11.7199 6.97021C13.5399 6.97021 14.3599 8.05023 14.3599 9.17023C14.3485 9.66574 14.1766 10.1442 13.8701 10.5337C13.5635 10.9232 13.1389 11.2027 12.6599 11.3303V11.3303C13.2189 11.4227 13.7269 11.7107 14.0933 12.143C14.4596 12.5753 14.6604 13.1236 14.6599 13.6902C14.6599 15.1602 13.5099 16.4503 11.3099 16.4503C10.4723 16.4598 9.64728 16.2458 8.91992 15.8303L9.38995 14.8903Z" fill="white"/>
</svg>
