<svg width="24" height="24" viewBox="0 0 24 24" fill="none" xmlns="http://www.w3.org/2000/svg">
<path d="M11.9201 23.6401C14.203 23.6421 16.4351 22.9669 18.3341 21.7001C20.2332 20.4332 21.7138 18.6316 22.5888 16.5231C23.4638 14.4146 23.6937 12.0941 23.2496 9.85485C22.8055 7.61565 21.7072 5.5585 20.0937 3.9436C18.4802 2.3287 16.424 1.22861 14.1852 0.782527C11.9463 0.336443 9.62551 0.564416 7.51627 1.43756C5.40702 2.3107 3.60414 3.78978 2.33566 5.68774C1.06719 7.5857 0.390138 9.81721 0.390137 12.1C0.390136 15.1589 1.60456 18.0926 3.76657 20.2565C5.92858 22.4204 8.86127 23.6374 11.9201 23.6401Z" fill="#434244"/>
<path d="M12.8303 16.7V14.2H8.55029V13.38L12.6603 7.5H14.0003V13.22H15.2903V14.22H14.0003V16.72L12.8303 16.7ZM12.8303 13.22V10.15C12.8303 9.67002 12.8303 9.15002 12.8303 8.71002C12.5403 9.24002 12.3203 9.64 12.0603 10.06L9.8103 13.19L12.8303 13.22Z" fill="white"/>
</svg>
