<svg width="24" height="24" viewBox="0 0 24 24" fill="none" xmlns="http://www.w3.org/2000/svg">
<path d="M11.52 23.6C13.8033 23.604 16.0363 22.9305 17.9367 21.6649C19.8371 20.3993 21.3193 18.5984 22.1958 16.4901C23.0723 14.3818 23.3037 12.0608 22.8607 9.82096C22.4177 7.58111 21.3202 5.52298 19.7071 3.90708C18.094 2.29118 16.0378 1.19013 13.7987 0.743235C11.5596 0.296338 9.2383 0.52368 7.12848 1.39652C5.01865 2.26937 3.21515 3.74847 1.94623 5.64665C0.67731 7.54482 3.42903e-06 9.77676 0 12.06C-1.14847e-06 15.1189 1.21446 18.0526 3.37646 20.2165C5.53847 22.3804 8.47116 23.5974 11.53 23.6" fill="#434244"/>
<path d="M14.2 8.4299H10.6899L10.34 10.7999C10.5879 10.7595 10.8388 10.7395 11.09 10.7399C11.7884 10.7216 12.4791 10.8908 13.09 11.2299C13.5027 11.469 13.8427 11.8159 14.0734 12.2333C14.3042 12.6508 14.4171 13.1232 14.4 13.5999C14.3943 14.0347 14.2998 14.4637 14.1223 14.8606C13.9447 15.2575 13.6879 15.614 13.3676 15.9081C13.0473 16.2021 12.6703 16.4276 12.2597 16.5706C11.8491 16.7137 11.4136 16.7713 10.9799 16.7399C10.1794 16.758 9.38862 16.5612 8.68994 16.1699L8.99994 15.2199C9.61154 15.5594 10.3005 15.735 10.9999 15.7299C11.2773 15.755 11.5569 15.7218 11.8207 15.6326C12.0845 15.5434 12.3268 15.4 12.532 15.2118C12.7373 15.0235 12.9009 14.7944 13.0125 14.5392C13.124 14.2841 13.1811 14.0084 13.1799 13.7299C13.1799 12.5399 12.3799 11.7299 10.5399 11.7299C10.1115 11.7356 9.68401 11.769 9.25995 11.8299L9.85992 7.41992H14.2599L14.2 8.4299Z" fill="white"/>
</svg>
