<svg width="24" height="24" viewBox="0 0 24 24" fill="none" xmlns="http://www.w3.org/2000/svg">
<path d="M12.0898 23.7001C14.3722 23.7001 16.6034 23.0233 18.5011 21.7553C20.3988 20.4872 21.878 18.685 22.7514 16.5763C23.6248 14.4676 23.8534 12.1473 23.4081 9.90878C22.9628 7.67024 21.8637 5.61402 20.2498 4.00012C18.6359 2.38622 16.5797 1.28713 14.3412 0.841856C12.1026 0.396583 9.7823 0.625129 7.67365 1.49856C5.56499 2.372 3.76266 3.8511 2.49463 5.74884C1.2266 7.64658 0.549805 9.87773 0.549805 12.1601C0.549805 15.2207 1.76564 18.156 3.92981 20.3201C6.09398 22.4843 9.02925 23.7001 12.0898 23.7001" fill="#434244"/>
<path d="M14.3399 8.43998C14.0257 8.4241 13.7106 8.44085 13.3999 8.48997C12.5816 8.60595 11.8247 8.98973 11.2476 9.58134C10.6705 10.1729 10.3056 10.9391 10.2099 11.76V11.76C10.5786 11.2882 11.0888 10.947 11.6657 10.7865C12.2426 10.6261 12.8558 10.6548 13.4152 10.8685C13.9746 11.0822 14.4507 11.4696 14.7737 11.9738C15.0967 12.478 15.2496 13.0725 15.2099 13.67C15.2328 14.0814 15.1726 14.4932 15.033 14.8808C14.8934 15.2685 14.6772 15.6241 14.3972 15.9265C14.1173 16.2288 13.7793 16.4717 13.4035 16.6407C13.0277 16.8096 12.6218 16.9012 12.2099 16.91C10.2099 16.91 8.94986 15.38 8.94986 12.99C8.92308 12.231 9.04719 11.4743 9.31497 10.7636C9.58275 10.053 9.98889 9.40255 10.5099 8.84998C11.3118 8.08296 12.3461 7.60449 13.4499 7.48997C13.7508 7.44187 14.0551 7.41848 14.3598 7.41999L14.3399 8.43998ZM13.9798 13.74C14.0145 13.4738 13.9913 13.2033 13.9115 12.947C13.8318 12.6907 13.6975 12.4546 13.518 12.2551C13.3384 12.0556 13.1178 11.8973 12.8713 11.7911C12.6248 11.685 12.3582 11.6334 12.0899 11.64C11.7174 11.6439 11.3533 11.7517 11.0388 11.9514C10.7244 12.151 10.4719 12.4345 10.3098 12.77C10.2075 12.9349 10.1554 13.126 10.1598 13.32C10.1598 14.83 10.8798 15.95 12.1598 15.95C13.2598 16 13.9998 15.06 13.9998 13.74H13.9798Z" fill="white"/>
</svg>
