<svg width="24" height="24" viewBox="0 0 24 24" fill="none" xmlns="http://www.w3.org/2000/svg">
<path d="M11.8801 23.6899C14.1629 23.6918 16.3951 23.0167 18.2941 21.7499C20.1932 20.4831 21.6739 18.6814 22.5488 16.5729C23.4238 14.4645 23.6537 12.1438 23.2096 9.90464C22.7655 7.66544 21.6671 5.60828 20.0536 3.99338C18.4402 2.37848 16.384 1.27842 14.1451 0.83234C11.9063 0.386255 9.5855 0.614198 7.47626 1.48734C5.36702 2.36048 3.56413 3.83956 2.29565 5.73752C1.02718 7.63548 0.350099 9.86702 0.350098 12.1498C0.350097 15.2087 1.56455 18.1425 3.72656 20.3063C5.88857 22.4702 8.82126 23.6872 11.8801 23.6899" fill="#434244"/>
<path d="M14.78 7.5498V8.36981L10.78 16.7498H9.48999L13.49 8.6098H9V7.6098L14.78 7.5498Z" fill="white"/>
</svg>
