<svg width="24" height="24" viewBox="0 0 24 24" fill="none" xmlns="http://www.w3.org/2000/svg">
<path d="M12.3398 23.6699C14.6222 23.6699 16.8534 22.993 18.7511 21.725C20.6488 20.457 22.128 18.6547 23.0014 16.546C23.8748 14.4374 24.1034 12.117 23.6581 9.87851C23.2128 7.63997 22.1137 5.58374 20.4998 3.96985C18.8859 2.35595 16.8297 1.25686 14.5912 0.811583C12.3526 0.366309 10.0323 0.594855 7.92365 1.46829C5.81499 2.34173 4.01266 3.82082 2.74463 5.71857C1.4766 7.61631 0.799805 9.84745 0.799805 12.1299C0.799805 15.1904 2.01564 18.1257 4.17981 20.2899C6.34398 22.454 9.27925 23.6699 12.3398 23.6699" fill="#434244"/>
<path d="M9.22998 14.3899C9.2395 13.84 9.42119 13.3069 9.74945 12.8656C10.0777 12.4243 10.5361 12.0971 11.06 11.9299V11.9299C10.6403 11.7674 10.2784 11.4839 10.0203 11.1153C9.76209 10.7467 9.61928 10.3097 9.60999 9.85985C9.62585 9.50907 9.71318 9.16524 9.86658 8.84938C10.02 8.53352 10.2362 8.2523 10.5021 8.02293C10.768 7.79357 11.0779 7.62087 11.4128 7.51546C11.7478 7.41004 12.1007 7.37412 12.45 7.40987C12.7772 7.36792 13.1095 7.39473 13.4258 7.4886C13.742 7.58247 14.0352 7.74133 14.2865 7.955C14.5378 8.16867 14.7418 8.43243 14.8853 8.72945C15.0288 9.02646 15.1088 9.35017 15.12 9.67986C15.1138 10.1485 14.9663 10.6044 14.697 10.988C14.4276 11.3716 14.0487 11.6649 13.61 11.8298V11.8298C14.1321 11.977 14.5933 12.2875 14.9262 12.7157C15.2591 13.144 15.4462 13.6676 15.46 14.2099C15.46 15.8099 14.09 16.8799 12.34 16.8799C10.39 16.8799 9.22998 15.7399 9.22998 14.3899ZM14.18 14.3399C14.18 13.2199 13.41 12.6799 12.18 12.3399C11.7306 12.4194 11.3219 12.6502 11.0218 12.994C10.7217 13.3378 10.5482 13.7739 10.53 14.2299C10.5207 14.4704 10.5625 14.7102 10.6528 14.9333C10.743 15.1564 10.8797 15.3579 11.0536 15.5242C11.2276 15.6906 11.4349 15.8182 11.6618 15.8984C11.8887 15.9787 12.1301 16.0099 12.37 15.9899C12.5994 16.0107 12.8307 15.9835 13.049 15.9101C13.2674 15.8367 13.4681 15.7186 13.6383 15.5634C13.8086 15.4082 13.9446 15.2193 14.0379 15.0087C14.1312 14.798 14.1795 14.5702 14.18 14.3399V14.3399ZM10.76 9.73985C10.76 10.6599 11.45 11.1499 12.52 11.4299C12.9023 11.3433 13.2459 11.1344 13.4985 10.8348C13.7512 10.5352 13.8992 10.1612 13.92 9.76985C13.9309 9.5648 13.8976 9.35981 13.8222 9.16881C13.7468 8.97781 13.6312 8.80527 13.4832 8.66295C13.3351 8.52063 13.1582 8.41187 12.9644 8.34404C12.7706 8.27621 12.5644 8.25089 12.36 8.26985C12.156 8.25019 11.9501 8.2737 11.7558 8.33885C11.5615 8.404 11.383 8.50933 11.2321 8.64799C11.0812 8.78666 10.9612 8.95554 10.8798 9.14366C10.7985 9.33178 10.7577 9.53491 10.76 9.73985V9.73985Z" fill="white"/>
</svg>
