<svg width="24" height="24" viewBox="0 0 24 24" fill="none" xmlns="http://www.w3.org/2000/svg">
<path d="M12.4402 23.9999C14.723 24.0019 16.9551 23.3268 18.8542 22.0599C20.7532 20.7931 22.2339 18.9915 23.1089 16.883C23.9839 14.7745 24.2138 12.4539 23.7697 10.2147C23.3255 7.9755 22.2272 5.91834 20.6137 4.30344C19.0002 2.68854 16.944 1.58848 14.7052 1.1424C12.4664 0.696314 10.1456 0.924257 8.03632 1.7974C5.92707 2.67054 4.12419 4.14962 2.85571 6.04758C1.58724 7.94554 0.910157 10.1771 0.910156 12.4599C0.910155 15.5188 2.12461 18.4525 4.28662 20.6164C6.44863 22.7803 9.38132 23.9973 12.4402 23.9999" fill="#434244"/>
<path d="M10.1302 16.1497C10.4628 16.1821 10.7977 16.1821 11.1302 16.1497C11.8517 16.0656 12.5277 15.7538 13.0602 15.2597C13.7368 14.6079 14.1678 13.7425 14.2802 12.8097V12.8097C13.9142 13.249 13.4208 13.5638 12.8682 13.7106C12.3156 13.8574 11.731 13.8289 11.1952 13.6291C10.6595 13.4293 10.199 13.068 9.87747 12.5952C9.55592 12.1224 9.38918 11.5614 9.40024 10.9897C9.38412 10.5669 9.45335 10.1452 9.60379 9.74973C9.75423 9.35426 9.98279 8.99315 10.2758 8.68796C10.5689 8.38276 10.9204 8.13974 11.3095 7.97339C11.6985 7.80704 12.1171 7.72076 12.5402 7.71973C14.4202 7.71973 15.5402 9.24973 15.5402 11.5997C15.5846 12.3879 15.4673 13.1768 15.1956 13.918C14.9239 14.6592 14.5035 15.337 13.9602 15.9097C13.2265 16.6033 12.2845 17.0357 11.2802 17.1397C10.9038 17.2037 10.5216 17.2271 10.1402 17.2097L10.1302 16.1497ZM10.5802 10.8597C10.5473 11.1107 10.5686 11.3658 10.6427 11.6079C10.7168 11.8499 10.842 12.0733 11.0097 12.2628C11.1775 12.4524 11.384 12.6038 11.6152 12.7067C11.8464 12.8097 12.0971 12.8619 12.3502 12.8597C12.7131 12.8663 13.0713 12.7774 13.389 12.6019C13.7067 12.4264 13.9726 12.1704 14.1602 11.8597C14.2439 11.7249 14.2858 11.5683 14.2802 11.4097C14.2802 9.83973 13.6902 8.63974 12.3902 8.63974C11.3302 8.62974 10.5802 9.55971 10.5802 10.8597V10.8597Z" fill="white"/>
</svg>
