<svg width="24" height="24" viewBox="0 0 24 24" fill="none" xmlns="http://www.w3.org/2000/svg">
<path d="M11.7002 23.6801C13.9826 23.6801 16.2137 23.0033 18.1114 21.7353C20.0092 20.4672 21.4883 18.6649 22.3617 16.5563C23.2352 14.4476 23.4637 12.1273 23.0184 9.88877C22.5731 7.65023 21.4741 5.59398 19.8602 3.98008C18.2463 2.36618 16.19 1.26712 13.9515 0.821845C11.713 0.376571 9.39266 0.605087 7.284 1.47852C5.17534 2.35196 3.37301 3.83108 2.10498 5.72883C0.836949 7.62657 0.160156 9.85772 0.160156 12.1401C0.160156 15.2007 1.37596 18.1359 3.54013 20.3001C5.7043 22.4643 8.63957 23.6801 11.7002 23.6801" fill="#764D2A"/>
<path d="M9.99997 13.9101L8.99997 16.9101H7.72998L10.97 7.37012H12.45L15.7 16.9101H14.39L13.39 13.9101H9.99997ZM13.13 12.9101L12.19 10.1601C11.98 9.54013 11.84 8.97014 11.7 8.42014C11.56 8.99014 11.4 9.57012 11.22 10.1501L10.28 12.9101H13.13Z" fill="white"/>
</svg>
