<svg width="24" height="24" viewBox="0 0 24 24" fill="none" xmlns="http://www.w3.org/2000/svg">
<path d="M11.56 23.1498C13.8415 23.1459 16.0707 22.4657 17.9658 21.1953C19.8609 19.9248 21.3369 18.1212 22.2073 16.0122C23.0776 13.9031 23.3034 11.5835 22.8558 9.34626C22.4083 7.10904 21.3076 5.05465 19.6929 3.44276C18.0782 1.83086 16.022 0.733762 13.784 0.290108C11.546 -0.153547 9.2267 0.0761523 7.1192 0.950172C5.01171 1.82419 3.21063 3.30332 1.94348 5.20063C0.676332 7.09794 3.42647e-06 9.32827 0 11.6098C0 14.6704 1.21584 17.6057 3.38 19.7698C5.54417 21.934 8.47938 23.1498 11.54 23.1498" fill="#764D2A"/>
<path d="M8.5498 6.99967C9.29134 6.85875 10.045 6.79174 10.7998 6.79966C11.7268 6.71788 12.6533 6.96189 13.4198 7.48966C13.6775 7.68498 13.884 7.93986 14.0215 8.23246C14.1591 8.52505 14.2238 8.84665 14.2098 9.16968C14.1932 9.6437 14.0292 10.1007 13.7407 10.4771C13.4521 10.8535 13.0532 11.1306 12.5998 11.2697V11.2697C13.1587 11.3741 13.6639 11.6696 14.0288 12.1057C14.3937 12.5417 14.5955 13.0911 14.5998 13.6597C14.6043 14.0168 14.5347 14.3709 14.3953 14.6997C14.2558 15.0285 14.0496 15.3247 13.7898 15.5697C12.8342 16.257 11.6614 16.5733 10.4898 16.4597C9.85111 16.4647 9.21288 16.4246 8.57983 16.3397L8.5498 6.99967ZM9.77985 10.8997H10.8998C12.1998 10.8997 12.9698 10.2197 12.9698 9.29966C12.9698 8.17966 12.1198 7.73966 10.8698 7.73966C10.5044 7.73276 10.1392 7.76291 9.77985 7.82966V10.8997ZM9.77985 15.4697C10.1113 15.5139 10.4455 15.5339 10.7798 15.5297C12.0498 15.5297 13.2198 15.0597 13.2198 13.6697C13.2198 12.2797 12.1098 11.8297 10.7598 11.8297H9.75983L9.77985 15.4697Z" fill="white"/>
</svg>
