<svg width="24" height="24" viewBox="0 0 24 24" fill="none" xmlns="http://www.w3.org/2000/svg">
<path d="M12.4199 23.1401C14.7023 23.1401 16.9334 22.4633 18.8312 21.1952C20.7289 19.9272 22.208 18.1249 23.0814 16.0162C23.9549 13.9076 24.1834 11.5873 23.7382 9.34873C23.2929 7.11019 22.1938 5.05397 20.5799 3.44007C18.966 1.82617 16.9097 0.727079 14.6712 0.281806C12.4327 -0.163468 10.1124 0.0650476 8.00372 0.938483C5.89506 1.81192 4.09274 3.29104 2.82471 5.18879C1.55668 7.08653 0.879883 9.31768 0.879883 11.6001C0.879883 14.6607 2.09572 17.5959 4.25989 19.7601C6.42406 21.9242 9.35926 23.1401 12.4199 23.1401" fill="#764D2A"/>
<path d="M16.0001 16.0703C15.2039 16.3935 14.349 16.5467 13.4901 16.5203C12.8514 16.5598 12.2116 16.4614 11.6142 16.2317C11.0169 16.0021 10.4761 15.6465 10.0283 15.1893C9.58056 14.732 9.23643 14.1838 9.01934 13.5818C8.80225 12.9798 8.71726 12.3381 8.77013 11.7003C8.73405 11.0342 8.83863 10.368 9.07714 9.74502C9.31565 9.12205 9.68272 8.55628 10.1544 8.08459C10.6261 7.6129 11.1918 7.24586 11.8148 7.00735C12.4378 6.76884 13.104 6.66423 13.7701 6.70032C14.5488 6.66743 15.3248 6.81099 16.0401 7.1203L15.7401 8.1203C15.1381 7.84487 14.482 7.70817 13.8201 7.7203C11.5801 7.7203 10.1001 9.1503 10.1001 11.6503C10.1001 13.9903 11.4401 15.4903 13.7601 15.4903C14.4472 15.4958 15.128 15.3596 15.7601 15.0903L16.0001 16.0703Z" fill="white"/>
</svg>
