<svg width="30" height="29" viewBox="0 0 30 29" fill="none" xmlns="http://www.w3.org/2000/svg">
<path d="M21.8998 26.5001L21.5997 25.9701C22.9716 25.1838 24.1992 24.1693 25.2297 22.9701L25.6898 23.3601C24.6178 24.6184 23.3354 25.6808 21.8998 26.5001ZM7.52979 26.4301C6.09935 25.5868 4.82695 24.5006 3.76978 23.2201L4.23975 22.8301C5.25074 24.059 6.46918 25.1015 7.83978 25.9101L7.52979 26.4301ZM28.1697 19.0001L27.5997 18.7901C28.1503 17.2982 28.4314 15.7203 28.4297 14.1301H29.0298C29.0312 15.7913 28.7401 17.4398 28.1697 19.0001V19.0001ZM1.32977 18.8701C0.787016 17.3383 0.509693 15.7252 0.509766 14.1001V14.0001H1.11975V14.1001C1.11608 15.6569 1.37995 17.2027 1.89978 18.6701L1.32977 18.8701ZM27.6198 9.46008C27.0755 7.96751 26.2771 6.58037 25.2598 5.36008L25.7297 4.97009C26.7957 6.24425 27.6285 7.69652 28.1898 9.2601L27.6198 9.46008ZM1.99976 9.3801L1.43976 9.1701C2.01403 7.61316 2.86053 6.1707 3.93976 4.9101L4.39978 5.30008C3.36861 6.51017 2.55641 7.89088 1.99976 9.3801V9.3801ZM21.6797 2.3801C20.3063 1.57203 18.7991 1.01657 17.2297 0.740082L17.3398 0.140106C18.9748 0.439041 20.545 1.02108 21.9797 1.86008L21.6797 2.3801ZM7.99976 2.27008L7.69977 1.75009C9.1422 0.9224 10.7199 0.356971 12.3597 0.0800781L12.4598 0.680084C10.8908 0.942377 9.38079 1.4807 7.99976 2.27008V2.27008Z" fill="#231F20"/>
<path d="M14.7695 28.4101V27.8001C15.5637 27.7985 16.3563 27.7316 17.1395 27.6001L17.2495 28.1901C16.4312 28.3381 15.6011 28.4117 14.7695 28.4101V28.4101Z" fill="#231F20"/>
<path d="M14.7698 28.4101C13.9417 28.4081 13.1153 28.3345 12.2998 28.1901L12.4098 27.6001C13.1894 27.7329 13.979 27.7998 14.7698 27.8001V28.4101Z" fill="#231F20"/>
</svg>
