<svg width="24" height="24" viewBox="0 0 24 24" fill="none" xmlns="http://www.w3.org/2000/svg">
<path d="M12 23.5995C14.2824 23.5995 16.5135 22.9227 18.4113 21.6547C20.309 20.3866 21.7881 18.5844 22.6615 16.4757C23.535 14.3671 23.7635 12.0467 23.3182 9.80817C22.873 7.56963 21.7739 5.51338 20.16 3.89948C18.5461 2.28558 16.4899 1.18655 14.2513 0.741278C12.0128 0.296005 9.69246 0.52452 7.5838 1.39796C5.47514 2.27139 3.67285 3.75052 2.40482 5.64826C1.13678 7.546 0.459961 9.77712 0.459961 12.0595C0.459961 15.1201 1.6758 18.0554 3.83997 20.2195C6.00414 22.3837 8.93937 23.5995 12 23.5995" fill="#764D2A"/>
<path d="M8.08008 7.41917C8.94687 7.28437 9.82289 7.21748 10.7001 7.21916C12.0918 7.10574 13.4738 7.53181 14.5601 8.40916C15.0201 8.84691 15.3791 9.37968 15.6123 9.97032C15.8454 10.561 15.9471 11.1953 15.9101 11.8292C15.9431 12.508 15.8388 13.1864 15.6034 13.8239C15.368 14.4614 15.0063 15.0448 14.5401 15.5392C13.3647 16.5266 11.8513 17.0179 10.3201 16.9092C9.57166 16.9161 8.8235 16.876 8.08008 16.7892V7.41917ZM9.3201 15.8492C9.73119 15.9025 10.1456 15.9259 10.5601 15.9192C13.1901 15.9192 14.6201 14.4492 14.6201 11.9192C14.6201 9.66917 13.3601 8.23918 10.7601 8.23918C10.2769 8.23204 9.79423 8.27561 9.3201 8.36918V15.8492Z" fill="white"/>
</svg>
