<svg width="24" height="24" viewBox="0 0 24 24" fill="none" xmlns="http://www.w3.org/2000/svg">
<path d="M11.8801 23.1401C14.1629 23.1421 16.3951 22.4669 18.2941 21.2001C20.1932 19.9332 21.6739 18.1317 22.5488 16.0232C23.4238 13.9147 23.6537 11.5941 23.2096 9.35486C22.7655 7.11566 21.6671 5.05851 20.0536 3.44361C18.4402 1.82871 16.384 0.72862 14.1451 0.282535C11.9063 -0.163549 9.5855 0.0643933 7.47626 0.937534C5.36702 1.81067 3.56413 3.28979 2.29565 5.18775C1.02718 7.08571 0.350099 9.31725 0.350098 11.6001C0.350097 14.6589 1.56455 17.5927 3.72656 19.7565C5.88857 21.9204 8.82126 23.1374 11.8801 23.1401" fill="#764D2A"/>
<path d="M14.1402 11.8998H10.4302V15.3398H14.5602V16.3398H9.2002V6.7998H14.3502V7.7998H10.4302V10.7998H14.1402V11.8998Z" fill="white"/>
</svg>
