<svg width="17" height="17" viewBox="0 0 17 17" fill="none" xmlns="http://www.w3.org/2000/svg">
<path d="M8.50011 16.1459C10.0854 16.1473 11.6355 15.6785 12.9543 14.7987C14.2731 13.919 15.3013 12.6679 15.9089 11.2037C16.5165 9.73944 16.6762 8.12788 16.3678 6.57288C16.0594 5.01788 15.2967 3.5893 14.1762 2.46784C13.0557 1.34639 11.6278 0.582437 10.073 0.272656C8.5183 -0.0371247 6.90664 0.12119 5.44189 0.727538C3.97713 1.33389 2.72511 2.36103 1.84422 3.67905C0.963339 4.99708 0.493165 6.54678 0.493164 8.13208C0.493163 10.2563 1.33654 12.2936 2.83793 13.7963C4.33933 15.299 6.3759 16.1441 8.50011 16.1459" fill="#764D2A"/>
<path d="M6.70117 4.82617H10.2706V5.52062H7.56228V7.72199H10.0623V8.41644H7.56228V11.4095H6.70117V4.82617Z" fill="white"/>
</svg>
