<svg width="24" height="24" viewBox="0 0 24 24" fill="none" xmlns="http://www.w3.org/2000/svg">
<path d="M11.8699 23.81C14.1527 23.8119 16.3849 23.1368 18.2839 21.87C20.183 20.6032 21.6636 18.8016 22.5386 16.6931C23.4135 14.5846 23.6435 12.264 23.1993 10.0248C22.7552 7.78555 21.657 5.7284 20.0435 4.1135C18.43 2.4986 16.3737 1.39854 14.1349 0.952457C11.8961 0.506372 9.57531 0.734315 7.46606 1.60746C5.35682 2.4806 3.55387 3.95971 2.2854 5.85767C1.01693 7.75563 0.339845 9.98714 0.339844 12.27C0.339843 15.3288 1.5543 18.2626 3.71631 20.4265C5.87832 22.5903 8.81101 23.8073 11.8699 23.81" fill="#764D2A"/>
<path d="M15.7801 16.6101C14.8431 16.947 13.8558 17.1228 12.8601 17.1301C12.2086 17.1935 11.5512 17.1133 10.9341 16.8953C10.3169 16.6773 9.75503 16.3267 9.28794 15.8682C8.82085 15.4097 8.45998 14.8544 8.23057 14.2414C8.00115 13.6284 7.90877 12.9726 7.96006 12.3201C7.93819 11.6474 8.05872 10.9777 8.31357 10.3548C8.56843 9.73185 8.95196 9.16975 9.43906 8.7053C9.92617 8.24085 10.5058 7.88451 11.1401 7.65959C11.7745 7.43467 12.4492 7.34623 13.1201 7.4001C13.9354 7.37925 14.7461 7.52913 15.5001 7.8401L15.2 8.8401C14.5378 8.5535 13.8215 8.41363 13.1001 8.43009C12.5859 8.39117 12.0693 8.4638 11.5858 8.64302C11.1022 8.82223 10.6631 9.10381 10.2984 9.46846C9.93379 9.8331 9.65221 10.2722 9.473 10.7558C9.29379 11.2393 9.22118 11.7559 9.26011 12.2701C9.20866 12.7738 9.26705 13.2827 9.43137 13.7616C9.59569 14.2405 9.86204 14.6781 10.2119 15.0441C10.5617 15.4101 10.9868 15.6959 11.4579 15.8816C11.9289 16.0674 12.4345 16.1488 12.94 16.1201C13.4989 16.1491 14.0576 16.0605 14.5801 15.8601V13.0001H12.6401V12.0001H15.7801V16.6101Z" fill="white"/>
</svg>
