<svg width="24" height="24" viewBox="0 0 24 24" fill="none" xmlns="http://www.w3.org/2000/svg">
<path d="M11.7703 23.6801C14.0531 23.6821 16.2852 23.0069 18.1843 21.7401C20.0833 20.4733 21.564 18.6717 22.439 16.5632C23.3139 14.4547 23.5439 12.1341 23.0997 9.8949C22.6556 7.6557 21.5573 5.59851 19.9438 3.98362C18.3303 2.36872 16.2741 1.26866 14.0353 0.822574C11.7965 0.37649 9.47564 0.604432 7.36639 1.47757C5.25715 2.35071 3.45427 3.82983 2.18579 5.72779C0.917317 7.62575 0.240235 9.85729 0.240234 12.1401C0.240233 15.199 1.45469 18.1327 3.6167 20.2966C5.77871 22.4605 8.7114 23.6774 11.7703 23.6801" fill="#764D2A"/>
<path d="M9.46051 7.37012V11.3701H14.0705V7.37012H15.3205V16.9101H14.0705V12.4401H9.46051V16.9101H8.23047V7.37012H9.46051Z" fill="white"/>
</svg>
