<svg width="7" height="20" viewBox="0 0 7 20" fill="none" xmlns="http://www.w3.org/2000/svg">
<path fill-rule="evenodd" clip-rule="evenodd" d="M5.83594 0.329847C6.01337 0.418967 6.14822 0.57481 6.21093 0.763205C6.27363 0.9516 6.25907 1.15717 6.17044 1.33485L1.83994 10.0003L6.17194 18.6643C6.21697 18.7525 6.2441 18.8487 6.25178 18.9474C6.25946 19.046 6.24753 19.1453 6.21668 19.2393C6.18583 19.3334 6.13666 19.4204 6.07202 19.4953C6.00738 19.5703 5.92854 19.6317 5.84005 19.6761C5.75156 19.7204 5.65517 19.7468 5.55643 19.7537C5.45769 19.7606 5.35856 19.7479 5.26475 19.7163C5.17095 19.6848 5.08432 19.6349 5.00986 19.5697C4.93541 19.5045 4.8746 19.4252 4.83094 19.3363L0.33094 10.3363C0.278678 10.2321 0.251465 10.117 0.251465 10.0003C0.251465 9.88369 0.278678 9.76864 0.33094 9.66435L4.83094 0.664348C4.92006 0.486915 5.0759 0.352063 5.2643 0.289359C5.45269 0.226654 5.65826 0.241214 5.83594 0.329847Z" fill="#6C757D"/>
</svg>
