<svg width="7" height="20" viewBox="0 0 7 20" fill="none" xmlns="http://www.w3.org/2000/svg">
<path fill-rule="evenodd" clip-rule="evenodd" d="M1.16406 19.6702C0.986628 19.581 0.851776 19.4252 0.789072 19.2368C0.726367 19.0484 0.740928 18.8428 0.829561 18.6652L5.16006 9.99965L0.82806 1.33565C0.783031 1.24751 0.755896 1.15132 0.748218 1.05264C0.740539 0.953959 0.75247 0.854733 0.783322 0.760683C0.814175 0.666634 0.863338 0.57962 0.927979 0.504663C0.992619 0.429705 1.07146 0.368284 1.15995 0.32394C1.24844 0.279594 1.34483 0.253204 1.44357 0.246292C1.54231 0.239378 1.64144 0.252077 1.73525 0.283657C1.82905 0.315235 1.91568 0.365072 1.99014 0.43029C2.06459 0.49551 2.1254 0.574821 2.16906 0.663652L6.66906 9.66365C6.72132 9.76795 6.74854 9.883 6.74854 9.99965C6.74854 10.1163 6.72132 10.2314 6.66906 10.3357L2.16906 19.3357C2.07994 19.5131 1.9241 19.6479 1.7357 19.7106C1.54731 19.7733 1.34174 19.7588 1.16406 19.6702Z" fill="#6C757D"/>
</svg>
