<svg width="24" height="24" viewBox="0 0 24 24" fill="none" xmlns="http://www.w3.org/2000/svg">
<path fill-rule="evenodd" clip-rule="evenodd" d="M6.97034 6.96936C7.04001 6.89952 7.12277 6.8441 7.21389 6.80629C7.30501 6.76849 7.40269 6.74902 7.50134 6.74902C7.59999 6.74902 7.69767 6.76849 7.78879 6.80629C7.87991 6.8441 7.96267 6.89952 8.03234 6.96936L12.0013 10.9399L15.9703 6.96936C16.0401 6.89963 16.1229 6.84432 16.214 6.80658C16.3051 6.76884 16.4027 6.74942 16.5013 6.74942C16.6 6.74942 16.6976 6.76884 16.7887 6.80658C16.8798 6.84432 16.9626 6.89963 17.0323 6.96936C17.1021 7.0391 17.1574 7.12188 17.1951 7.21299C17.2329 7.3041 17.2523 7.40175 17.2523 7.50036C17.2523 7.59898 17.2329 7.69663 17.1951 7.78774C17.1574 7.87885 17.1021 7.96163 17.0323 8.03136L13.0618 12.0004L17.0323 15.9694C17.1021 16.0391 17.1574 16.1219 17.1951 16.213C17.2329 16.3041 17.2523 16.4017 17.2523 16.5004C17.2523 16.599 17.2329 16.6966 17.1951 16.7877C17.1574 16.8788 17.1021 16.9616 17.0323 17.0314C16.9626 17.1011 16.8798 17.1564 16.7887 17.1941C16.6976 17.2319 16.6 17.2513 16.5013 17.2513C16.4027 17.2513 16.3051 17.2319 16.214 17.1941C16.1229 17.1564 16.0401 17.1011 15.9703 17.0314L12.0013 13.0609L8.03234 17.0314C7.96261 17.1011 7.87982 17.1564 7.78872 17.1941C7.69761 17.2319 7.59996 17.2513 7.50134 17.2513C7.40272 17.2513 7.30507 17.2319 7.21396 17.1941C7.12286 17.1564 7.04007 17.1011 6.97034 17.0314C6.90061 16.9616 6.84529 16.8788 6.80756 16.7877C6.76982 16.6966 6.75039 16.599 6.75039 16.5004C6.75039 16.4017 6.76982 16.3041 6.80756 16.213C6.84529 16.1219 6.90061 16.0391 6.97034 15.9694L10.9408 12.0004L6.97034 8.03136C6.9005 7.9617 6.84508 7.87893 6.80727 7.78781C6.76946 7.6967 6.75 7.59901 6.75 7.50036C6.75 7.40171 6.76946 7.30403 6.80727 7.21291C6.84508 7.1218 6.9005 7.03903 6.97034 6.96936Z" fill="black"/>
</svg>
