<svg width="20" height="6" viewBox="0 0 20 6" fill="none" xmlns="http://www.w3.org/2000/svg">
<path fill-rule="evenodd" clip-rule="evenodd" d="M0.328871 0.419214C0.417991 0.250842 0.573833 0.122876 0.762228 0.0633735C0.950623 0.00387083 1.1562 0.0176874 1.33387 0.101794L9.99937 4.21116L18.6634 0.100371C18.7515 0.0576419 18.8477 0.0318919 18.9464 0.0246057C19.0451 0.0173194 19.1443 0.028641 19.2383 0.0579178C19.3324 0.0871947 19.4194 0.133847 19.4944 0.195187C19.5693 0.256526 19.6307 0.331339 19.6751 0.415311C19.7194 0.499283 19.7458 0.590754 19.7527 0.684451C19.7596 0.778147 19.7469 0.872216 19.7154 0.961233C19.6838 1.05025 19.634 1.13246 19.5687 1.20311C19.5035 1.27376 19.4242 1.33147 19.3354 1.3729L10.3354 5.64311C10.2311 5.6927 10.116 5.71853 9.99937 5.71853C9.88271 5.71853 9.76767 5.6927 9.66337 5.64311L0.663371 1.3729C0.485939 1.28833 0.351087 1.14044 0.288382 0.961667C0.225677 0.782892 0.240238 0.587817 0.328871 0.419214Z" fill="#22385F"/>
</svg>
