<svg width="7" height="20" viewBox="0 0 7 20" fill="none" xmlns="http://www.w3.org/2000/svg">
<path fill-rule="evenodd" clip-rule="evenodd" d="M5.83593 0.328871C6.01336 0.417991 6.14821 0.573833 6.21091 0.762228C6.27362 0.950623 6.25906 1.1562 6.17043 1.33387L1.83993 9.99937L6.17193 18.6634C6.21695 18.7515 6.24409 18.8477 6.25177 18.9464C6.25945 19.0451 6.24752 19.1443 6.21666 19.2383C6.18581 19.3324 6.13665 19.4194 6.07201 19.4944C6.00737 19.5693 5.92853 19.6307 5.84004 19.6751C5.75155 19.7194 5.65515 19.7458 5.55642 19.7527C5.45768 19.7596 5.35855 19.7469 5.26474 19.7154C5.17093 19.6838 5.0843 19.634 5.00985 19.5687C4.93539 19.5035 4.87458 19.4242 4.83093 19.3354L0.330925 10.3354C0.278663 10.2311 0.251451 10.116 0.251451 9.99937C0.251451 9.88271 0.278663 9.76767 0.330925 9.66337L4.83093 0.663371C4.92005 0.485939 5.07589 0.351087 5.26428 0.288382C5.45268 0.225677 5.65825 0.240238 5.83593 0.328871Z" fill="black"/>
</svg>
