<svg width="20" height="7" viewBox="0 0 20 7" fill="none" xmlns="http://www.w3.org/2000/svg">
<path fill-rule="evenodd" clip-rule="evenodd" d="M19.6711 6.12962C19.582 6.29799 19.4262 6.42595 19.2378 6.48545C19.0494 6.54496 18.8438 6.53114 18.6661 6.44703L10.0006 2.33768L1.33663 6.44846C1.24848 6.49119 1.1523 6.51694 1.05362 6.52422C0.954935 6.53151 0.855709 6.52019 0.76166 6.49091C0.66761 6.46163 0.580597 6.41498 0.50564 6.35364C0.430681 6.2923 0.369261 6.21749 0.324917 6.13352C0.280571 6.04955 0.254181 5.95808 0.247269 5.86438C0.240355 5.77068 0.253054 5.67661 0.284634 5.5876C0.316212 5.49858 0.366049 5.41638 0.431267 5.34572C0.496487 5.27507 0.575798 5.21737 0.664629 5.17594L9.66463 0.905734C9.76892 0.856141 9.88397 0.830317 10.0006 0.830317C10.1173 0.830317 10.2323 0.856141 10.3366 0.905734L19.3366 5.17594C19.5141 5.26051 19.6489 5.40839 19.7116 5.58716C19.7743 5.76594 19.7598 5.96101 19.6711 6.12962Z" fill="#ffffff"/>
</svg>
